<svg width="16" height="16" viewBox="0 0 16 16" fill="none" xmlns="http://www.w3.org/2000/svg">
<path d="M1.37466 7.76824C1.3191 7.91792 1.3191 8.08256 1.37466 8.23224C1.9158 9.54434 2.83434 10.6662 4.01384 11.4556C5.19335 12.2451 6.58069 12.6665 8 12.6665C9.4193 12.6665 10.8066 12.2451 11.9861 11.4556C13.1657 10.6662 14.0842 9.54434 14.6253 8.23224C14.6809 8.08256 14.6809 7.91792 14.6253 7.76824C14.0842 6.45614 13.1657 5.33427 11.9861 4.54484C10.8066 3.75541 9.4193 3.33398 8 3.33398C6.58069 3.33398 5.19335 3.75541 4.01384 4.54484C2.83434 5.33427 1.9158 6.45614 1.37466 7.76824Z" stroke="#2C1810" stroke-width="1.33333" stroke-linecap="round" stroke-linejoin="round"/>
<path d="M8 10C9.10457 10 10 9.10457 10 8C10 6.89543 9.10457 6 8 6C6.89543 6 6 6.89543 6 8C6 9.10457 6.89543 10 8 10Z" stroke="#2C1810" stroke-width="1.33333" stroke-linecap="round" stroke-linejoin="round"/>
</svg>
