<svg width="13" height="13" viewBox="0 0 13 13" fill="none" xmlns="http://www.w3.org/2000/svg">
<g clip-path="url(#clip0_57_154)">
<path d="M11.9168 9.16473V10.7897C11.9174 10.9406 11.8865 11.0899 11.826 11.2281C11.7656 11.3663 11.677 11.4904 11.5658 11.5924C11.4547 11.6944 11.3234 11.772 11.1805 11.8204C11.0376 11.8687 10.8862 11.8866 10.7359 11.8731C9.06914 11.6919 7.46806 11.1224 6.06136 10.2101C4.7526 9.3785 3.643 8.2689 2.81136 6.96014C1.89593 5.54705 1.32624 3.93818 1.14844 2.26389C1.1349 2.1141 1.15271 1.96314 1.20071 1.82061C1.24872 1.67808 1.32587 1.5471 1.42727 1.43602C1.52867 1.32494 1.65208 1.23619 1.78966 1.17543C1.92724 1.11466 2.07596 1.0832 2.22636 1.08306H3.85136C4.11423 1.08047 4.36908 1.17356 4.56839 1.34497C4.76771 1.51639 4.8979 1.75443 4.93469 2.01473C5.00328 2.53476 5.13048 3.04537 5.31386 3.53681C5.38673 3.73069 5.40251 3.94139 5.35931 4.14395C5.3161 4.34652 5.21574 4.53245 5.07011 4.67973L4.38219 5.36764C5.15328 6.72373 6.2761 7.84655 7.63219 8.61764L8.32011 7.92973C8.46738 7.78409 8.65331 7.68373 8.85588 7.64053C9.05844 7.59733 9.26915 7.6131 9.46302 7.68598C9.95446 7.86936 10.4651 7.99656 10.9851 8.06514C11.2482 8.10226 11.4885 8.2348 11.6603 8.43754C11.8321 8.64028 11.9234 8.89908 11.9168 9.16473Z" stroke="white" stroke-width="1.08333" stroke-linecap="round" stroke-linejoin="round"/>
</g>
<defs>
<clipPath id="clip0_57_154">
<rect width="13" height="13" fill="white"/>
</clipPath>
</defs>
</svg>
